# xmcd
#
# Track frame offsets:
#	150
#	11958
#	24526
#	38453
#	62266
#	78981
#	98701
#	114633
#	129495
#	144273
#	163270
#	178482
#	196106
#	220258
#	235208
#	256143
#	283108
#
# Disc length: 4085 seconds
#
# Revision: 5
# Processed by: cddbd v1.5.2PL0 Copyright (c) Steve Scherf et al.
# Submitted via: EasyCDDAExtractor 12.0.0.1
#
DISCID=e80ff311
DTITLE=Various Artist - The Best Of Blues - CD2
DYEAR=2000
DGENRE=Blues
TTITLE0=Etta James - I'd Rather Go Blind
TTITLE1=Aretha Franklin - Today I Sing The Blues
TTITLE2=T-Bone Walker - That Evening Train
TTITLE3=Junior Wells - Use Me
TTITLE4=Charlie Musselwhite - Trouble No More
TTITLE5=Fenton Robinson - Somebody Loan Me A Dime
TTITLE6=The Mighty Houserockers - Madison Blues
TTITLE7=Tommy Tacker - Drunk
TTITLE8=Billy Boy Arnold and Tony McPhee - Don't Stay Out All Night
TTITLE9=Carey Bell& Willie Williams - You Went Away Baby
TTITLE10=King Curtis - Soul Groove (Part. 2)
TTITLE11=Earl Hooker - Bertha
TTITLE12=U.P. Wilson and Paul Orta and The Kingpins - Baby What You Want Me To Do
TTITLE13=Greg Fengers Taylor and Anson Funderburgh and The Rockets - Soul Survivor
TTITLE14=Mighty Joe Young - Why You Want To Hurt Me
TTITLE15=Joe Carter - Stormy Monday
TTITLE16=Magic Slim - Cummins Prison Farm
EXTD=
EXTT0=
EXTT1=
EXTT2=
EXTT3=
EXTT4=
EXTT5=
EXTT6=
EXTT7=
EXTT8=
EXTT9=
EXTT10=
EXTT11=
EXTT12=
EXTT13=
EXTT14=
EXTT15=
EXTT16=
PLAYORDER=
